<svg version="1.1" xmlns="http://www.w3.org/2000/svg" viewBox="0 0 1449.82572988067 964.214149451951" width="4349.47718964201" height="2892.642448355853">
  <!-- svg-source:excalidraw -->
  
  <defs>
    <style class="style-fonts">
      @font-face {
        font-family: "Virgil";
        src: url("https://excalidraw.com/Virgil.woff2");
      }
      @font-face {
        font-family: "Cascadia";
        src: url("https://excalidraw.com/Cascadia.woff2");
      }
      @font-face {
        font-family: "Assistant";
        src: url("https://excalidraw.com/Assistant-Regular.woff2");
      }
    </style>
    
  </defs>
  <g stroke-linecap="round" transform="translate(580.0803914732919 318.1261118920985) rotate(0 159.25 89.00000000000004)"><path d="M200 22.5 C226.85 35.76, 249.59 50.29, 278.5 67.5 C318.8 92.97, 321.11 87.21, 278.5 112.5 C255.98 125.56, 233.66 135.26, 200 155.5 C156.56 181.51, 161.11 174.47, 120 155.5 C94.52 145.84, 74.77 127.35, 40 112.5 C-3.41 87.1, -1.24 89.47, 40 67.5 C58.12 56.43, 73.5 49.82, 120 22.5 C161.92 -3.26, 162.73 2.7, 200 22.5" stroke="none" stroke-width="0" fill="#1971c2"></path><path d="M200 22.5 C226.44 39.13, 254.5 52.86, 278.5 67.5 M200 22.5 C223.23 36.18, 245.82 49.5, 278.5 67.5 M278.5 67.5 C319.73 89.75, 318.37 88.09, 278.5 112.5 M278.5 67.5 C316.38 90.88, 318.69 91.53, 278.5 112.5 M278.5 112.5 C261.96 122.39, 244.97 128.77, 200 155.5 M278.5 112.5 C256.61 124.14, 235.74 136.81, 200 155.5 M200 155.5 C161.38 176.55, 158.68 177.11, 120 155.5 M200 155.5 C161.59 177.75, 158.08 177.6, 120 155.5 M120 155.5 C104.63 145.58, 84.8 136.49, 40 112.5 M120 155.5 C99.58 144.01, 78.34 133.53, 40 112.5 M40 112.5 C0.76 90.48, -0.34 91.16, 40 67.5 M40 112.5 C-1.57 91.83, 2.08 89.8, 40 67.5 M40 67.5 C66.65 50.7, 90.91 36.42, 120 22.5 M40 67.5 C65.07 55.09, 88.97 41.17, 120 22.5 M120 22.5 C158.91 0.62, 161.99 -0.05, 200 22.5 M120 22.5 C160.29 -1.17, 159.5 0.29, 200 22.5" stroke="#1e1e1e" stroke-width="4" fill="none"></path></g><g stroke-linecap="round" transform="translate(838.936917921334 184.66340153736746) rotate(0 118.86920310651772 24.517891002095126)"><path d="M12.26 0 C89.53 -0.28, 169.98 3.23, 225.48 0 C236.26 -2.79, 237.16 3.7, 237.74 12.26 C237.55 18.25, 234.28 31.85, 237.74 36.78 C238.85 41.42, 233.54 49.22, 225.48 49.04 C149.81 47.95, 67.11 48.52, 12.26 49.04 C2.84 48.51, -2.46 46.23, 0 36.78 C-3.27 32.97, 1.94 20.61, 0 12.26 C2.73 6.79, 0.9 0.65, 12.26 0" stroke="none" stroke-width="0" fill="#4dabf7"></path><path d="M12.26 0 C81.28 -1.55, 149.61 -2.87, 225.48 0 M12.26 0 C78 -0.44, 144.35 -1.03, 225.48 0 M225.48 0 C233.52 -1.91, 235.89 4.85, 237.74 12.26 M225.48 0 C233.84 1.53, 235.76 3.91, 237.74 12.26 M237.74 12.26 C237.84 17.22, 237.39 27.96, 237.74 36.78 M237.74 12.26 C238.64 19.58, 238.37 25.67, 237.74 36.78 M237.74 36.78 C236.42 44.06, 235.03 48.82, 225.48 49.04 M237.74 36.78 C235.82 44.55, 231.55 49.86, 225.48 49.04 M225.48 49.04 C161.66 47.29, 100.04 48.45, 12.26 49.04 M225.48 49.04 C153.14 47.32, 82.36 47.77, 12.26 49.04 M12.26 49.04 C3.75 50.2, -1.36 46.54, 0 36.78 M12.26 49.04 C6.17 48.83, 0.67 46.5, 0 36.78 M0 36.78 C-1.52 27.82, -0.06 21.01, 0 12.26 M0 36.78 C0.5 30.73, -0.76 24.08, 0 12.26 M0 12.26 C1.99 4.04, 4.34 -1.02, 12.26 0 M0 12.26 C-0.5 4.37, 4.8 -2.03, 12.26 0" stroke="#1e1e1e" stroke-width="2" fill="none"></path></g><g transform="translate(851.165496027852 192.3812925394626) rotate(0 106.640625 16.800000000000004)"><text x="106.640625" y="0" font-family="Cascadia, Segoe UI Emoji" font-size="28px" fill="#1e1e1e" text-anchor="middle" style="white-space: pre;" direction="ltr" dominant-baseline="text-before-edge">Programmation</text></g><g stroke-linecap="round" transform="translate(387.31065021500854 188.70397603569688) rotate(0 118.86920310651772 24.517891002095126)"><path d="M12.26 0 C72.47 -5.23, 127.59 -3.12, 225.48 0 C234.66 -0.14, 238.19 3.91, 237.74 12.26 C238.43 14.69, 237.2 24.35, 237.74 36.78 C240.06 43.25, 235.82 51.34, 225.48 49.04 C181.43 45.85, 137.41 47.44, 12.26 49.04 C2.76 48.91, -1.18 41.67, 0 36.78 C2.49 30.32, -3.43 19.11, 0 12.26 C-3.21 0.81, 2.78 -3.04, 12.26 0" stroke="none" stroke-width="0" fill="#4dabf7"></path><path d="M12.26 0 C73.54 2.53, 135.38 1.6, 225.48 0 M12.26 0 C87.96 -0.6, 162.96 0.57, 225.48 0 M225.48 0 C233.82 1.33, 236.01 3.93, 237.74 12.26 M225.48 0 C233.27 0.32, 238.69 4.17, 237.74 12.26 M237.74 12.26 C237.46 16.71, 237 24, 237.74 36.78 M237.74 12.26 C237.25 19.78, 238.6 28.09, 237.74 36.78 M237.74 36.78 C236.07 44.6, 231.82 49.76, 225.48 49.04 M237.74 36.78 C237.56 46.63, 232.62 47.08, 225.48 49.04 M225.48 49.04 C173.1 49.48, 118.06 48.09, 12.26 49.04 M225.48 49.04 C167.24 50, 108.7 50.19, 12.26 49.04 M12.26 49.04 C5.89 48.86, 0.58 46.3, 0 36.78 M12.26 49.04 C4.28 49.75, -2.21 43.29, 0 36.78 M0 36.78 C-0.7 32.86, 1.7 26.9, 0 12.26 M0 36.78 C1.13 28.28, 0.26 19.32, 0 12.26 M0 12.26 C-0.43 4.34, 4.71 -1.77, 12.26 0 M0 12.26 C1.59 5.1, 3.66 -1.07, 12.26 0" stroke="#1e1e1e" stroke-width="2" fill="none"></path></g><g transform="translate(399.5392283215265 196.42186703779203) rotate(0 106.640625 16.8)"><text x="106.640625" y="0" font-family="Cascadia, Segoe UI Emoji" font-size="28px" fill="#1e1e1e" text-anchor="middle" style="white-space: pre;" direction="ltr" dominant-baseline="text-before-edge">Développement</text></g><g stroke-linecap="round" transform="translate(305.0698260635377 520.5036135443183) rotate(0 118.86920310651772 39)"><path d="M19.5 0 C64.71 0.24, 108.36 0.21, 218.24 0 C229.18 -3.44, 241.25 7.61, 237.74 19.5 C240.03 25.68, 239.89 37.56, 237.74 58.5 C234.19 68.09, 228.33 76.76, 218.24 78 C160.22 79.15, 103.66 75.99, 19.5 78 C9.15 79.92, -3.26 74.23, 0 58.5 C-2.59 40.6, -0.68 26.21, 0 19.5 C0.93 9.34, 7.99 -0.46, 19.5 0" stroke="none" stroke-width="0" fill="#4dabf7"></path><path d="M19.5 0 C90.14 1.29, 158.32 -0.06, 218.24 0 M19.5 0 C60.27 -0.09, 100.01 -0.84, 218.24 0 M218.24 0 C230.91 0.28, 238.56 6.57, 237.74 19.5 M218.24 0 C228.95 -0.44, 239.8 6.23, 237.74 19.5 M237.74 19.5 C238.11 31.68, 236.15 39.78, 237.74 58.5 M237.74 19.5 C237.17 29.28, 237.09 39.77, 237.74 58.5 M237.74 58.5 C237.58 72.96, 230.34 76.3, 218.24 78 M237.74 58.5 C236.56 70.48, 231.58 78.84, 218.24 78 M218.24 78 C156.11 77.37, 95.56 76.28, 19.5 78 M218.24 78 C147.95 79.5, 76.15 80.26, 19.5 78 M19.5 78 C6.67 78.62, -1.92 70.06, 0 58.5 M19.5 78 C4.9 78.02, -0.74 70.7, 0 58.5 M0 58.5 C0.58 42.33, 0.29 30.34, 0 19.5 M0 58.5 C-0.27 47.02, 0.26 34.4, 0 19.5 M0 19.5 C1.39 7.38, 6.13 -0.93, 19.5 0 M0 19.5 C-0.65 6.69, 8.4 1.67, 19.5 0" stroke="#1e1e1e" stroke-width="2" fill="none"></path></g><g transform="translate(317.2984041700556 525.9036135443183) rotate(0 106.640625 33.60000000000001)"><text x="106.640625" y="0" font-family="Cascadia, Segoe UI Emoji" font-size="28px" fill="#1e1e1e" text-anchor="middle" style="white-space: pre;" direction="ltr" dominant-baseline="text-before-edge">Développement</text><text x="106.640625" y="33.6" font-family="Cascadia, Segoe UI Emoji" font-size="28px" fill="#1e1e1e" text-anchor="middle" style="white-space: pre;" direction="ltr" dominant-baseline="text-before-edge">Mobile</text></g><g stroke-linecap="round" transform="translate(619.2152700189436 639.1587520404977) rotate(0 128.5 55.5)"><path d="M27.75 0 C85.55 -2.93, 150.2 1.15, 229.25 0 C244.22 -0.11, 257.18 11.57, 257 27.75 C254.06 38.36, 254.7 54.56, 257 83.25 C256.47 99.29, 249.03 109.68, 229.25 111 C171.87 109.76, 106.82 110.48, 27.75 111 C11.95 107.81, 0.65 98.54, 0 83.25 C1.29 74.5, 1.85 59.59, 0 27.75 C2.53 11.1, 9.68 -0.72, 27.75 0" stroke="none" stroke-width="0" fill="#4dabf7"></path><path d="M27.75 0 C98.83 -1.54, 174.02 0.26, 229.25 0 M27.75 0 C101.5 0.26, 175.92 0.17, 229.25 0 M229.25 0 C245.76 -0.38, 258.79 9.01, 257 27.75 M229.25 0 C247.22 -0.8, 259.2 9.83, 257 27.75 M257 27.75 C255.7 49.6, 256.38 67.01, 257 83.25 M257 27.75 C256.42 44.16, 256.04 58.27, 257 83.25 M257 83.25 C255.97 100.86, 248.04 111.73, 229.25 111 M257 83.25 C257.23 99.94, 246.15 110.37, 229.25 111 M229.25 111 C162.23 109.47, 94.56 112.31, 27.75 111 M229.25 111 C170.67 112.5, 111.07 111.57, 27.75 111 M27.75 111 C7.86 111.02, -0.64 101.06, 0 83.25 M27.75 111 C11.24 112.95, 1.63 102.8, 0 83.25 M0 83.25 C-0.22 69.88, -1.19 55.58, 0 27.75 M0 83.25 C0.52 66.35, -0.36 48.1, 0 27.75 M0 27.75 C-0.57 9.41, 10.9 1.45, 27.75 0 M0 27.75 C-1.78 8.88, 9 0.64, 27.75 0" stroke="#1e1e1e" stroke-width="2" fill="none"></path></g><g transform="translate(624.6683950189436 644.2587520404977) rotate(0 123.046875 50.400000000000006)"><text x="123.046875" y="0" font-family="Cascadia, Segoe UI Emoji" font-size="28px" fill="#1e1e1e" text-anchor="middle" style="white-space: pre;" direction="ltr" dominant-baseline="text-before-edge">Administration </text><text x="123.046875" y="33.6" font-family="Cascadia, Segoe UI Emoji" font-size="28px" fill="#1e1e1e" text-anchor="middle" style="white-space: pre;" direction="ltr" dominant-baseline="text-before-edge">et </text><text x="123.046875" y="67.2" font-family="Cascadia, Segoe UI Emoji" font-size="28px" fill="#1e1e1e" text-anchor="middle" style="white-space: pre;" direction="ltr" dominant-baseline="text-before-edge">déploiement</text></g><g stroke-linecap="round" transform="translate(971.1546591801539 320.4043157260717) rotate(0 118.86920310651772 39)"><path d="M19.5 0 C56.58 -1.22, 100.9 1.21, 218.24 0 C229.54 2.17, 240.04 2.95, 237.74 19.5 C236.64 25.04, 238.46 34.18, 237.74 58.5 C237.61 70.32, 227.96 80.65, 218.24 78 C150.71 77.52, 78.44 77.49, 19.5 78 C3.22 76.7, -3.04 72.43, 0 58.5 C2.24 45.57, 0.14 28.22, 0 19.5 C-2.48 8.47, 5.84 0.16, 19.5 0" stroke="none" stroke-width="0" fill="#4dabf7"></path><path d="M19.5 0 C62.13 -1.89, 101.93 -0.49, 218.24 0 M19.5 0 C80.87 -0.26, 145.13 -0.19, 218.24 0 M218.24 0 C230.78 -0.69, 239.65 7, 237.74 19.5 M218.24 0 C232.82 -1.67, 236.22 5.47, 237.74 19.5 M237.74 19.5 C237.35 32.06, 238.42 48.13, 237.74 58.5 M237.74 19.5 C237.05 33.61, 237.71 48.97, 237.74 58.5 M237.74 58.5 C237.94 69.93, 229.85 77.45, 218.24 78 M237.74 58.5 C238.61 72.05, 230.85 79.34, 218.24 78 M218.24 78 C171.97 80.38, 127.41 79.97, 19.5 78 M218.24 78 C151.73 76.58, 86.29 76.22, 19.5 78 M19.5 78 C8.23 79.7, 1.42 72.41, 0 58.5 M19.5 78 C5.24 78.71, 2.29 71.45, 0 58.5 M0 58.5 C0.45 46.93, -1.57 35.51, 0 19.5 M0 58.5 C-0.21 45.17, 0.9 32.4, 0 19.5 M0 19.5 C-1.55 6.18, 6.29 0.56, 19.5 0 M0 19.5 C-0.09 6.79, 6.39 -1.31, 19.5 0" stroke="#1e1e1e" stroke-width="2" fill="none"></path></g><g transform="translate(1024.3988622866718 325.80431572607165) rotate(0 65.625 33.599999999999994)"><text x="65.625" y="0" font-family="Cascadia, Segoe UI Emoji" font-size="28px" fill="#1e1e1e" text-anchor="middle" style="white-space: pre;" direction="ltr" dominant-baseline="text-before-edge">Base de </text><text x="65.625" y="33.6" font-family="Cascadia, Segoe UI Emoji" font-size="28px" fill="#1e1e1e" text-anchor="middle" style="white-space: pre;" direction="ltr" dominant-baseline="text-before-edge">données</text></g><g stroke-linecap="round" transform="translate(973.4350463489764 524.7807731987778) rotate(0 118.86920310651772 39)"><path d="M19.5 0 C76.79 -0.13, 139.78 -5.85, 218.24 0 C227.82 -2.9, 236.5 5.97, 237.74 19.5 C237.86 27.36, 234.71 40.22, 237.74 58.5 C239.66 68.24, 233.96 80.7, 218.24 78 C172.95 73.5, 131.18 75.73, 19.5 78 C9.34 79.49, -0.46 74.03, 0 58.5 C-2.56 46.77, -0.75 31.25, 0 19.5 C-2.42 9.39, 9.86 -2.44, 19.5 0" stroke="none" stroke-width="0" fill="#4dabf7"></path><path d="M19.5 0 C62.27 1.15, 104.55 -1.66, 218.24 0 M19.5 0 C75.09 -0.11, 132.1 0.48, 218.24 0 M218.24 0 C232.61 -1.45, 236.42 5.61, 237.74 19.5 M218.24 0 C232.83 -0.25, 235.82 6.1, 237.74 19.5 M237.74 19.5 C239.34 26.73, 236.18 34.73, 237.74 58.5 M237.74 19.5 C237.89 28.68, 237.1 39.17, 237.74 58.5 M237.74 58.5 C238.49 71.98, 230.9 79.16, 218.24 78 M237.74 58.5 C236.17 73.33, 233.32 77.8, 218.24 78 M218.24 78 C153.46 76.24, 85.99 76.77, 19.5 78 M218.24 78 C159.33 78.16, 99.4 77.77, 19.5 78 M19.5 78 C5.41 78.62, 1.99 71.45, 0 58.5 M19.5 78 C6.79 76.83, -0.5 71.79, 0 58.5 M0 58.5 C1.22 45.22, -0.58 32.11, 0 19.5 M0 58.5 C-1.1 46.32, -0.43 34.74, 0 19.5 M0 19.5 C-0.08 6.75, 6.4 -1.14, 19.5 0 M0 19.5 C-2.2 8.74, 7.21 -2.25, 19.5 0" stroke="#1e1e1e" stroke-width="2" fill="none"></path></g><g transform="translate(985.6636244554943 530.1807731987777) rotate(0 106.640625 33.60000000000001)"><text x="106.640625" y="0" font-family="Cascadia, Segoe UI Emoji" font-size="28px" fill="#1e1e1e" text-anchor="middle" style="white-space: pre;" direction="ltr" dominant-baseline="text-before-edge">Développement</text><text x="106.640625" y="33.6" font-family="Cascadia, Segoe UI Emoji" font-size="28px" fill="#1e1e1e" text-anchor="middle" style="white-space: pre;" direction="ltr" dominant-baseline="text-before-edge">Web</text></g><g stroke-linecap="round" transform="translate(253.12312452489778 336.05141915365505) rotate(0 118.86920310651772 39)"><path d="M19.5 0 C87.7 0.62, 161.48 3, 218.24 0 C228.78 1.28, 236.42 6.38, 237.74 19.5 C239.02 26.67, 239.82 43.05, 237.74 58.5 C234.55 72.15, 228.02 74.72, 218.24 78 C168.65 80.41, 112.91 81.45, 19.5 78 C8.35 78.43, -0.72 69.02, 0 58.5 C-2.29 47.56, 3.49 28.39, 0 19.5 C1.33 9.45, 3.9 -0.03, 19.5 0" stroke="none" stroke-width="0" fill="#4dabf7"></path><path d="M19.5 0 C86.94 3.77, 154.91 1.52, 218.24 0 M19.5 0 C72.94 -1.22, 124.34 -0.95, 218.24 0 M218.24 0 C232.62 -0.21, 236.07 6.15, 237.74 19.5 M218.24 0 C229.13 0.83, 237.56 8.18, 237.74 19.5 M237.74 19.5 C236.52 29.74, 238.13 39.59, 237.74 58.5 M237.74 19.5 C237.84 28.37, 237.3 37.35, 237.74 58.5 M237.74 58.5 C236.38 73.1, 233.05 77.82, 218.24 78 M237.74 58.5 C238.41 73.05, 231.43 78.72, 218.24 78 M218.24 78 C177.75 75.97, 136.54 78.34, 19.5 78 M218.24 78 C141.19 79.22, 66.24 78.88, 19.5 78 M19.5 78 C6.75 76.98, -0.43 71.75, 0 58.5 M19.5 78 C7.21 75.97, 1.59 72.51, 0 58.5 M0 58.5 C0.34 49.17, 1.63 34.98, 0 19.5 M0 58.5 C0 47.55, -0.01 35.78, 0 19.5 M0 19.5 C-1.91 8.45, 7.12 -1.96, 19.5 0 M0 19.5 C-0.07 6.62, 7.98 -1.09, 19.5 0" stroke="#1e1e1e" stroke-width="2" fill="none"></path></g><g transform="translate(281.7579526314157 341.451419153655) rotate(0 90.234375 33.599999999999994)"><text x="90.234375" y="0" font-family="Cascadia, Segoe UI Emoji" font-size="28px" fill="#1e1e1e" text-anchor="middle" style="white-space: pre;" direction="ltr" dominant-baseline="text-before-edge">Systèmes &amp; </text><text x="90.234375" y="33.6" font-family="Cascadia, Segoe UI Emoji" font-size="28px" fill="#1e1e1e" text-anchor="middle" style="white-space: pre;" direction="ltr" dominant-baseline="text-before-edge">réseaux</text></g><g transform="translate(650.2694271324372 375.2261118920985) rotate(0 90.234375 33.599999999999994)"><text x="90.234375" y="0" font-family="Cascadia, Segoe UI Emoji" font-size="28px" fill="#ffffff" text-anchor="middle" style="white-space: pre;" direction="ltr" dominant-baseline="text-before-edge">Compétences</text><text x="90.234375" y="33.6" font-family="Cascadia, Segoe UI Emoji" font-size="28px" fill="#ffffff" text-anchor="middle" style="white-space: pre;" direction="ltr" dominant-baseline="text-before-edge">techniques</text></g><g stroke-linecap="round"><g transform="translate(741.4370004035627 313.30810640595337) rotate(0 47.34433393762856 -50.409249045277825)"><path d="M1.15 0.3 C6.3 -11.53, 15.15 -54.43, 30.61 -71.38 C46.07 -88.32, 83.08 -96.43, 93.9 -101.35 M0.29 -0.59 C5.38 -12.25, 14.08 -53.67, 30.1 -70.3 C46.11 -86.92, 85.36 -95.38, 96.38 -100.32" stroke="#1e1e1e" stroke-width="2" fill="none"></path></g><g transform="translate(741.4370004035627 313.30810640595337) rotate(0 47.34433393762856 -50.409249045277825)"><path d="M76.91 -84.63 C82.86 -87.79, 86.3 -94.83, 96.38 -100.32 M76.91 -84.63 C80.94 -88.79, 85.83 -92.26, 96.38 -100.32" stroke="#1e1e1e" stroke-width="2" fill="none"></path></g><g transform="translate(741.4370004035627 313.30810640595337) rotate(0 47.34433393762856 -50.409249045277825)"><path d="M71.38 -100.81 C78.8 -99.54, 83.77 -102.1, 96.38 -100.32 M71.38 -100.81 C76.93 -100.83, 83.23 -100.17, 96.38 -100.32" stroke="#1e1e1e" stroke-width="2" fill="none"></path></g></g><mask></mask><g stroke-linecap="round"><g transform="translate(741.1078590898505 313.67440636244226) rotate(0 -55.638783838176096 -46.76473168945902)"><path d="M0.83 -0.87 C-6.22 -12.98, -22.6 -56.91, -41.14 -72.38 C-59.69 -87.84, -98.59 -90.1, -110.45 -93.66 M-0.2 1.29 C-6.97 -10.7, -20.42 -55.51, -38.85 -71.12 C-57.28 -86.74, -98.49 -88.8, -110.78 -92.41" stroke="#1e1e1e" stroke-width="2" fill="none"></path></g><g transform="translate(741.1078590898505 313.67440636244226) rotate(0 -55.638783838176096 -46.76473168945902)"><path d="M-86.12 -96.54 C-97.32 -96.05, -106.52 -91.72, -110.78 -92.41 M-86.12 -96.54 C-94.21 -95.03, -100.5 -93.46, -110.78 -92.41" stroke="#1e1e1e" stroke-width="2" fill="none"></path></g><g transform="translate(741.1078590898505 313.67440636244226) rotate(0 -55.638783838176096 -46.76473168945902)"><path d="M-89.24 -79.72 C-99.25 -85.91, -107.21 -88.23, -110.78 -92.41 M-89.24 -79.72 C-96.28 -83.07, -101.67 -86.37, -110.78 -92.41" stroke="#1e1e1e" stroke-width="2" fill="none"></path></g></g><mask></mask><g stroke-linecap="round"><g transform="translate(900.6664962811374 407.12611189209855) rotate(0 32.794048958328176 -21.1166285024648)"><path d="M-0.79 -0.54 C2.42 -5.6, 9.21 -24.24, 20.11 -31.22 C31.01 -38.21, 57.19 -40.68, 64.59 -42.44 M0.99 1.8 C4.05 -2.99, 8.6 -22.58, 19.6 -29.75 C30.59 -36.93, 59.53 -39.45, 66.95 -41.23" stroke="#1e1e1e" stroke-width="2" fill="none"></path></g><g transform="translate(900.6664962811374 407.12611189209855) rotate(0 32.794048958328176 -21.1166285024648)"><path d="M46.23 -29.51 C53.06 -32.32, 61.38 -39.69, 66.95 -41.23 M46.23 -29.51 C52.11 -32.17, 57.6 -37.06, 66.95 -41.23" stroke="#1e1e1e" stroke-width="2" fill="none"></path></g><g transform="translate(900.6664962811374 407.12611189209855) rotate(0 32.794048958328176 -21.1166285024648)"><path d="M43.54 -45.58 C51.25 -42.44, 60.56 -43.89, 66.95 -41.23 M43.54 -45.58 C50.04 -43.7, 56.28 -44.06, 66.95 -41.23" stroke="#1e1e1e" stroke-width="2" fill="none"></path></g></g><mask></mask><g stroke-linecap="round"><g transform="translate(579.6357786962485 406.2290204426882) rotate(0 -41.72570559976748 -15.374999611275449)"><path d="M0.83 -0.13 C-4.03 -4.32, -15.71 -20.65, -29.94 -25.68 C-44.17 -30.72, -75.62 -29.62, -84.55 -30.32 M-0.2 -1.24 C-4.62 -5.2, -14.08 -19.06, -27.76 -24.26 C-41.43 -29.45, -72.97 -31.15, -82.23 -32.43" stroke="#1e1e1e" stroke-width="2" fill="none"></path></g><g transform="translate(579.6357786962485 406.2290204426882) rotate(0 -41.72570559976748 -15.374999611275449)"><path d="M-58 -38.56 C-63.91 -38.63, -69.71 -37.36, -82.23 -32.43 M-58 -38.56 C-66.59 -37.17, -74.8 -34.71, -82.23 -32.43" stroke="#1e1e1e" stroke-width="2" fill="none"></path></g><g transform="translate(579.6357786962485 406.2290204426882) rotate(0 -41.72570559976748 -15.374999611275449)"><path d="M-59.73 -21.55 C-65.16 -25.61, -70.56 -28.32, -82.23 -32.43 M-59.73 -21.55 C-67.73 -25.89, -75.36 -29.14, -82.23 -32.43" stroke="#1e1e1e" stroke-width="2" fill="none"></path></g></g><mask></mask><g stroke-linecap="round"><g transform="translate(900.6257720978006 407.12611189209855) rotate(0 33.711246719218025 76.79073527301878)"><path d="M-1 -0.21 C2 17.47, 7.46 80.17, 18.84 105.95 C30.23 131.73, 59.32 146.69, 67.33 154.46 M0.67 -1.36 C3.96 15.96, 10.01 78.4, 20.98 104.05 C31.95 129.71, 58.87 144.4, 66.52 152.58" stroke="#1e1e1e" stroke-width="2" fill="none"></path></g><g transform="translate(900.6257720978006 407.12611189209855) rotate(0 33.711246719218025 76.79073527301878)"><path d="M42.98 144.15 C51.31 145.63, 61.06 150.41, 66.52 152.58 M42.98 144.15 C51.21 147.05, 60.65 151, 66.52 152.58" stroke="#1e1e1e" stroke-width="2" fill="none"></path></g><g transform="translate(900.6257720978006 407.12611189209855) rotate(0 33.711246719218025 76.79073527301878)"><path d="M53.9 130.99 C58.18 137.23, 63.91 146.88, 66.52 152.58 M53.9 130.99 C58 138.71, 63.36 147.57, 66.52 152.58" stroke="#1e1e1e" stroke-width="2" fill="none"></path></g></g><mask></mask><g stroke-linecap="round"><g transform="translate(580.0413254507266 404.8225102080928) rotate(0 -14.17174449397794 78.03510613237984)"><path d="M-1.1 0.43 C-1.73 19.37, -0.15 87.65, -4.78 113.42 C-9.41 139.19, -24.85 148.03, -28.88 155.05 M0.53 -0.39 C-0.18 18.24, -0.7 85.72, -5.78 111.76 C-10.85 137.8, -26.05 148.4, -29.93 155.83" stroke="#1e1e1e" stroke-width="2" fill="none"></path></g><g transform="translate(580.0413254507266 404.8225102080928) rotate(0 -14.17174449397794 78.03510613237984)"><path d="M-22.63 132.16 C-23.53 137.07, -24.37 141.44, -29.93 155.83 M-22.63 132.16 C-24.17 137.59, -25.79 141.53, -29.93 155.83" stroke="#1e1e1e" stroke-width="2" fill="none"></path></g><g transform="translate(580.0413254507266 404.8225102080928) rotate(0 -14.17174449397794 78.03510613237984)"><path d="M-9.12 142.4 C-12.93 144.96, -16.69 147.12, -29.93 155.83 M-9.12 142.4 C-13.52 145.56, -18.04 147.3, -29.93 155.83" stroke="#1e1e1e" stroke-width="2" fill="none"></path></g></g><mask></mask><g stroke-linecap="round"><g transform="translate(737.0816260981405 496.0149171171347) rotate(0 0.08058646308495554 68.08489280180117)"><path d="M-0.09 0.88 C0.03 23.33, -0.32 112.69, -0.38 135.15 M-1.6 0.29 C-1.59 22.82, -1.62 113.42, -1.61 136.15" stroke="#1e1e1e" stroke-width="2" fill="none"></path></g><g transform="translate(737.0816260981405 496.0149171171347) rotate(0 0.08058646308495554 68.08489280180117)"><path d="M-10.16 112.66 C-6.83 116.67, -8.21 121.43, -1.61 136.15 M-10.16 112.66 C-7.84 117.85, -6.45 124.37, -1.61 136.15" stroke="#1e1e1e" stroke-width="2" fill="none"></path></g><g transform="translate(737.0816260981405 496.0149171171347) rotate(0 0.08058646308495554 68.08489280180117)"><path d="M6.94 112.66 C6.71 116.65, 1.76 121.42, -1.61 136.15 M6.94 112.66 C4.89 117.91, 1.91 124.43, -1.61 136.15" stroke="#1e1e1e" stroke-width="2" fill="none"></path></g></g><mask></mask><g stroke-linecap="round" transform="translate(898.4248784402475 10) rotate(0 166.25636440646008 63.413990224942154)"><path d="M31.71 0 C86.03 2.1, 147.35 2.54, 300.81 0 C321.48 2.53, 334.36 11, 332.51 31.71 C331.07 49.62, 329.3 70.13, 332.51 95.12 C335.87 113.82, 323.28 129.78, 300.81 126.83 C238.86 125.74, 178.34 128.17, 31.71 126.83 C12.03 129.52, -3.55 114.38, 0 95.12 C1.88 81.7, 1.38 69.02, 0 31.71 C-0.32 13.61, 13.75 0.47, 31.71 0" stroke="none" stroke-width="0" fill="#a5d8ff"></path><path d="M31.71 0 C109.04 0.14, 188.34 1.18, 300.81 0 M31.71 0 C121.68 1.44, 213.05 1.85, 300.81 0 M300.81 0 C321.6 1.16, 331.15 12.16, 332.51 31.71 M300.81 0 C324.02 -0.2, 333.18 12.12, 332.51 31.71 M332.51 31.71 C331.27 49.87, 332.73 70.18, 332.51 95.12 M332.51 31.71 C333.77 48.99, 332.52 65.67, 332.51 95.12 M332.51 95.12 C334.5 116.21, 322.19 125.81, 300.81 126.83 M332.51 95.12 C332.01 116.55, 322.66 124.8, 300.81 126.83 M300.81 126.83 C200.71 126, 102.2 127.74, 31.71 126.83 M300.81 126.83 C200.49 126.71, 100.32 126.59, 31.71 126.83 M31.71 126.83 C10.47 125.69, -1.91 118.21, 0 95.12 M31.71 126.83 C11.28 124.57, -0.07 116.37, 0 95.12 M0 95.12 C1.58 70.05, -1.6 47.3, 0 31.71 M0 95.12 C0.45 77.92, 0.06 61.12, 0 31.71 M0 31.71 C-1.82 12.04, 11.64 -1.81, 31.71 0 M0 31.71 C1.74 12.3, 8.53 0.42, 31.71 0" stroke="#1e1e1e" stroke-width="1" fill="none"></path></g><g transform="translate(905.3062428467074 25.413990224942154) rotate(0 159.375 48)"><text x="159.375" y="0" font-family="Cascadia, Segoe UI Emoji" font-size="16px" fill="#1e1e1e" text-anchor="middle" style="white-space: pre;" direction="ltr" dominant-baseline="text-before-edge">15/20</text><text x="159.375" y="19.2" font-family="Cascadia, Segoe UI Emoji" font-size="16px" fill="#1e1e1e" text-anchor="middle" style="white-space: pre;" direction="ltr" dominant-baseline="text-before-edge">J'ai grandement augmenté la </text><text x="159.375" y="38.4" font-family="Cascadia, Segoe UI Emoji" font-size="16px" fill="#1e1e1e" text-anchor="middle" style="white-space: pre;" direction="ltr" dominant-baseline="text-before-edge">qualité de mon code mais reste </text><text x="159.375" y="57.599999999999994" font-family="Cascadia, Segoe UI Emoji" font-size="16px" fill="#1e1e1e" text-anchor="middle" style="white-space: pre;" direction="ltr" dominant-baseline="text-before-edge">encore en difficulté devant </text><text x="159.375" y="76.8" font-family="Cascadia, Segoe UI Emoji" font-size="16px" fill="#1e1e1e" text-anchor="middle" style="white-space: pre;" direction="ltr" dominant-baseline="text-before-edge">certains problèmes algorithmiques.</text></g><g stroke-linecap="round" transform="translate(982.7423658444491 662.5939277961179) rotate(0 166.25636440646008 63.413990224942154)"><path d="M31.71 0 C119.01 0.41, 208.48 -1.23, 300.81 0 C321.23 -2.48, 334.48 9.91, 332.51 31.71 C335.1 48.57, 333.08 73.26, 332.51 95.12 C329.91 116.23, 323.51 125.96, 300.81 126.83 C247.35 128.52, 188.81 124.94, 31.71 126.83 C7.59 124.53, 0.69 117.42, 0 95.12 C-0.52 78.51, 2.98 56.28, 0 31.71 C0.43 13.09, 8.88 -1.92, 31.71 0" stroke="none" stroke-width="0" fill="#a5d8ff"></path><path d="M31.71 0 C99.19 -0.16, 164.3 -1.4, 300.81 0 M31.71 0 C104.89 -0.05, 177.8 0.12, 300.81 0 M300.81 0 C323.75 -0.18, 333.09 11.92, 332.51 31.71 M300.81 0 C322.14 0.72, 330.3 8.91, 332.51 31.71 M332.51 31.71 C331.82 48.04, 334.22 62.33, 332.51 95.12 M332.51 31.71 C333.16 53.6, 332.29 75.03, 332.51 95.12 M332.51 95.12 C332.08 116.51, 322.56 125.06, 300.81 126.83 M332.51 95.12 C334.11 117.27, 321.52 125.76, 300.81 126.83 M300.81 126.83 C228.85 127.35, 154.36 128.4, 31.71 126.83 M300.81 126.83 C212.49 126.64, 123.5 127.86, 31.71 126.83 M31.71 126.83 C11.19 124.87, -0.06 116.36, 0 95.12 M31.71 126.83 C12.05 125.74, 1.39 117.73, 0 95.12 M0 95.12 C-0.09 82.05, -0.76 70.28, 0 31.71 M0 95.12 C-0.89 79.16, 0.56 60.82, 0 31.71 M0 31.71 C1.51 12.07, 8.8 0.36, 31.71 0 M0 31.71 C-2.05 8.48, 9.74 -1.94, 31.71 0" stroke="#1e1e1e" stroke-width="1" fill="none"></path></g><g transform="translate(989.6237302509089 678.00791802106) rotate(0 159.375 48)"><text x="159.375" y="0" font-family="Cascadia, Segoe UI Emoji" font-size="16px" fill="#1e1e1e" text-anchor="middle" style="white-space: pre;" direction="ltr" dominant-baseline="text-before-edge">18/20</text><text x="159.375" y="19.2" font-family="Cascadia, Segoe UI Emoji" font-size="16px" fill="#1e1e1e" text-anchor="middle" style="white-space: pre;" direction="ltr" dominant-baseline="text-before-edge">J'apprécie fortement ce domaine </text><text x="159.375" y="38.4" font-family="Cascadia, Segoe UI Emoji" font-size="16px" fill="#1e1e1e" text-anchor="middle" style="white-space: pre;" direction="ltr" dominant-baseline="text-before-edge">après avoir renforcer mes </text><text x="159.375" y="57.599999999999994" font-family="Cascadia, Segoe UI Emoji" font-size="16px" fill="#1e1e1e" text-anchor="middle" style="white-space: pre;" direction="ltr" dominant-baseline="text-before-edge">connaissances à son sujet lors du </text><text x="159.375" y="76.8" font-family="Cascadia, Segoe UI Emoji" font-size="16px" fill="#1e1e1e" text-anchor="middle" style="white-space: pre;" direction="ltr" dominant-baseline="text-before-edge">projet tutoré.</text></g><g stroke-linecap="round" transform="translate(497.3794930555641 827.3861690020667) rotate(0 254.92672305002498 63.413990224942154)"><path d="M31.71 0 C196.65 -1.69, 363.26 -0.8, 478.15 0 C499.44 -2.42, 512.75 13.93, 509.85 31.71 C507.67 46.41, 511.84 60.3, 509.85 95.12 C506.36 116.34, 498.89 128.29, 478.15 126.83 C309.41 123.65, 143.93 125.34, 31.71 126.83 C10.93 127.48, 1.46 115.94, 0 95.12 C-0.58 73.25, -2.7 44.42, 0 31.71 C-2.93 12.63, 12.55 0.49, 31.71 0" stroke="none" stroke-width="0" fill="#a5d8ff"></path><path d="M31.71 0 C169.76 1.89, 308.59 1.35, 478.15 0 M31.71 0 C192.06 -1.79, 351.68 -1.41, 478.15 0 M478.15 0 C499.45 0.62, 507.93 9.13, 509.85 31.71 M478.15 0 C497.68 0.02, 509.12 9.77, 509.85 31.71 M509.85 31.71 C511.3 55.13, 511.01 82.72, 509.85 95.12 M509.85 31.71 C509.72 50.7, 510.24 68.57, 509.85 95.12 M509.85 95.12 C511.24 117.14, 498.92 125.9, 478.15 126.83 M509.85 95.12 C509.2 116.45, 501.18 128.49, 478.15 126.83 M478.15 126.83 C379.12 126.56, 279.67 126.55, 31.71 126.83 M478.15 126.83 C369.86 128.48, 261.25 128.98, 31.71 126.83 M31.71 126.83 C11.86 125.88, 1.21 117.54, 0 95.12 M31.71 126.83 C8.3 124.65, -1.86 115.47, 0 95.12 M0 95.12 C-0.3 76.96, -0.22 57.11, 0 31.71 M0 95.12 C0.42 72.18, -1.22 47.92, 0 31.71 M0 31.71 C-1.79 8.75, 9.85 -1.69, 31.71 0 M0 31.71 C0.59 12.39, 11.52 -0.29, 31.71 0" stroke="#1e1e1e" stroke-width="1" fill="none"></path></g><g transform="translate(503.8687161055891 852.4001592270089) rotate(0 248.4375 38.39999999999998)"><text x="248.4375" y="0" font-family="Cascadia, Segoe UI Emoji" font-size="16px" fill="#1e1e1e" text-anchor="middle" style="white-space: pre;" direction="ltr" dominant-baseline="text-before-edge">15/20</text><text x="248.4375" y="19.2" font-family="Cascadia, Segoe UI Emoji" font-size="16px" fill="#1e1e1e" text-anchor="middle" style="white-space: pre;" direction="ltr" dominant-baseline="text-before-edge">Ce bloc constitue une partie importante de tout </text><text x="248.4375" y="38.4" font-family="Cascadia, Segoe UI Emoji" font-size="16px" fill="#1e1e1e" text-anchor="middle" style="white-space: pre;" direction="ltr" dominant-baseline="text-before-edge">projet informatique et demande une certaine rigueur à</text><text x="248.4375" y="57.599999999999994" font-family="Cascadia, Segoe UI Emoji" font-size="16px" fill="#1e1e1e" text-anchor="middle" style="white-space: pre;" direction="ltr" dominant-baseline="text-before-edge">sa mise en place. </text></g><g stroke-linecap="round" transform="translate(1271.2465163606644 224.67149753480976) rotate(0 84.28960676000281 139.0332405333608)"><path d="M32 0 C56.32 -2.08, 83.23 3.7, 136.58 0 C155.48 1.33, 171.53 8.06, 168.58 32 C166.99 96.1, 169.7 161.35, 168.58 246.07 C171.27 263.85, 156.04 275.09, 136.58 278.07 C112.24 279.32, 88.64 278.35, 32 278.07 C13.71 281.25, 0.47 267.83, 0 246.07 C-0.98 168.68, 3.32 88.11, 0 32 C-0.96 7.07, 13.37 -1.83, 32 0" stroke="none" stroke-width="0" fill="#a5d8ff"></path><path d="M32 0 C68.49 -1.18, 104.25 1.99, 136.58 0 M32 0 C62.53 -0.39, 91.93 -1.42, 136.58 0 M136.58 0 C156.52 0.02, 167.94 9.97, 168.58 32 M136.58 0 C159.9 1.95, 170.21 11.72, 168.58 32 M168.58 32 C169.12 84.74, 168.27 136.67, 168.58 246.07 M168.58 32 C169.77 99.28, 169 165.38, 168.58 246.07 M168.58 246.07 C168.01 267.56, 159.56 279.52, 136.58 278.07 M168.58 246.07 C166.79 267.03, 157.67 278.71, 136.58 278.07 M136.58 278.07 C104.48 276.1, 76.61 278.63, 32 278.07 M136.58 278.07 C116.1 277.65, 94.94 278.76, 32 278.07 M32 278.07 C8.7 276.17, -1.61 266.71, 0 246.07 M32 278.07 C10.33 276.5, 0.82 266.56, 0 246.07 M0 246.07 C1.9 183.52, -0.97 120.43, 0 32 M0 246.07 C0.88 164.98, 1.35 84.75, 0 32 M0 32 C0.52 12.25, 11.49 -0.26, 32 0 M0 32 C1.62 11.85, 10.94 -0.46, 32 0" stroke="#1e1e1e" stroke-width="1" fill="none"></path></g><g transform="translate(1280.536123120667 258.1047380681706) rotate(0 75 105.6)"><text x="75" y="0" font-family="Cascadia, Segoe UI Emoji" font-size="16px" fill="#1e1e1e" text-anchor="middle" style="white-space: pre;" direction="ltr" dominant-baseline="text-before-edge">13/20</text><text x="75" y="19.2" font-family="Cascadia, Segoe UI Emoji" font-size="16px" fill="#1e1e1e" text-anchor="middle" style="white-space: pre;" direction="ltr" dominant-baseline="text-before-edge">Il est encore </text><text x="75" y="38.4" font-family="Cascadia, Segoe UI Emoji" font-size="16px" fill="#1e1e1e" text-anchor="middle" style="white-space: pre;" direction="ltr" dominant-baseline="text-before-edge">difficile pour </text><text x="75" y="57.599999999999994" font-family="Cascadia, Segoe UI Emoji" font-size="16px" fill="#1e1e1e" text-anchor="middle" style="white-space: pre;" direction="ltr" dominant-baseline="text-before-edge">moi de penser à </text><text x="75" y="76.8" font-family="Cascadia, Segoe UI Emoji" font-size="16px" fill="#1e1e1e" text-anchor="middle" style="white-space: pre;" direction="ltr" dominant-baseline="text-before-edge">toutes les </text><text x="75" y="96" font-family="Cascadia, Segoe UI Emoji" font-size="16px" fill="#1e1e1e" text-anchor="middle" style="white-space: pre;" direction="ltr" dominant-baseline="text-before-edge">tables et/ou </text><text x="75" y="115.19999999999999" font-family="Cascadia, Segoe UI Emoji" font-size="16px" fill="#1e1e1e" text-anchor="middle" style="white-space: pre;" direction="ltr" dominant-baseline="text-before-edge">documents </text><text x="75" y="134.4" font-family="Cascadia, Segoe UI Emoji" font-size="16px" fill="#1e1e1e" text-anchor="middle" style="white-space: pre;" direction="ltr" dominant-baseline="text-before-edge">nécessaires au </text><text x="75" y="153.6" font-family="Cascadia, Segoe UI Emoji" font-size="16px" fill="#1e1e1e" text-anchor="middle" style="white-space: pre;" direction="ltr" dominant-baseline="text-before-edge">bon </text><text x="75" y="172.79999999999998" font-family="Cascadia, Segoe UI Emoji" font-size="16px" fill="#1e1e1e" text-anchor="middle" style="white-space: pre;" direction="ltr" dominant-baseline="text-before-edge">fonctionnement </text><text x="75" y="192" font-family="Cascadia, Segoe UI Emoji" font-size="16px" fill="#1e1e1e" text-anchor="middle" style="white-space: pre;" direction="ltr" dominant-baseline="text-before-edge">d'un projet.</text></g><g stroke-linecap="round" transform="translate(10 236.4997523522029) rotate(0 84.2896067600027 139.0332405333608)"><path d="M32 0 C53.9 -0.42, 83.63 -4.36, 136.58 0 C157.88 1.57, 167.71 7.17, 168.58 32 C170.56 93.56, 166.56 158.75, 168.58 246.07 C166.28 268.09, 159.07 278.42, 136.58 278.07 C106.36 281.08, 70.53 278.33, 32 278.07 C13.18 276.38, -1.92 264.47, 0 246.07 C-2.7 166.44, 0.51 91.51, 0 32 C2.72 11.21, 8.19 1.82, 32 0" stroke="none" stroke-width="0" fill="#a5d8ff"></path><path d="M32 0 C56.07 -0.36, 81.85 -0.78, 136.58 0 M32 0 C65.93 0.76, 100.94 0.41, 136.58 0 M136.58 0 C159.64 1.7, 170 11.58, 168.58 32 M136.58 0 C156.66 0.71, 170.87 10.61, 168.58 32 M168.58 32 C167.84 99.44, 166.08 167, 168.58 246.07 M168.58 32 C167.99 105.7, 168.96 179.89, 168.58 246.07 M168.58 246.07 C167.03 267.08, 157.7 278.63, 136.58 278.07 M168.58 246.07 C168.49 267.69, 157.8 276.75, 136.58 278.07 M136.58 278.07 C113.25 278.32, 93.94 279.68, 32 278.07 M136.58 278.07 C109.16 277.79, 82.91 278.39, 32 278.07 M32 278.07 C10.37 276.7, 0.71 266.67, 0 246.07 M32 278.07 C10.59 277.31, -2.1 269.09, 0 246.07 M0 246.07 C3.01 168.87, 2.02 93.22, 0 32 M0 246.07 C0.9 202.03, 1.04 156.49, 0 32 M0 32 C1.4 11.69, 10.91 -0.4, 32 0 M0 32 C-1.58 11.93, 10.24 0.1, 32 0" stroke="#1e1e1e" stroke-width="1" fill="none"></path></g><g transform="translate(19.289606760002698 279.5329928855637) rotate(0 75 96)"><text x="75" y="0" font-family="Cascadia, Segoe UI Emoji" font-size="16px" fill="#1e1e1e" text-anchor="middle" style="white-space: pre;" direction="ltr" dominant-baseline="text-before-edge">12/20</text><text x="75" y="19.2" font-family="Cascadia, Segoe UI Emoji" font-size="16px" fill="#1e1e1e" text-anchor="middle" style="white-space: pre;" direction="ltr" dominant-baseline="text-before-edge">N'étant pas </text><text x="75" y="38.4" font-family="Cascadia, Segoe UI Emoji" font-size="16px" fill="#1e1e1e" text-anchor="middle" style="white-space: pre;" direction="ltr" dominant-baseline="text-before-edge">habitué à la </text><text x="75" y="57.599999999999994" font-family="Cascadia, Segoe UI Emoji" font-size="16px" fill="#1e1e1e" text-anchor="middle" style="white-space: pre;" direction="ltr" dominant-baseline="text-before-edge">programmation </text><text x="75" y="76.8" font-family="Cascadia, Segoe UI Emoji" font-size="16px" fill="#1e1e1e" text-anchor="middle" style="white-space: pre;" direction="ltr" dominant-baseline="text-before-edge">dite de bas </text><text x="75" y="96" font-family="Cascadia, Segoe UI Emoji" font-size="16px" fill="#1e1e1e" text-anchor="middle" style="white-space: pre;" direction="ltr" dominant-baseline="text-before-edge">niveau, la </text><text x="75" y="115.19999999999999" font-family="Cascadia, Segoe UI Emoji" font-size="16px" fill="#1e1e1e" text-anchor="middle" style="white-space: pre;" direction="ltr" dominant-baseline="text-before-edge">manipulation de </text><text x="75" y="134.4" font-family="Cascadia, Segoe UI Emoji" font-size="16px" fill="#1e1e1e" text-anchor="middle" style="white-space: pre;" direction="ltr" dominant-baseline="text-before-edge">protocoles reste</text><text x="75" y="153.6" font-family="Cascadia, Segoe UI Emoji" font-size="16px" fill="#1e1e1e" text-anchor="middle" style="white-space: pre;" direction="ltr" dominant-baseline="text-before-edge">pour moi très </text><text x="75" y="172.79999999999998" font-family="Cascadia, Segoe UI Emoji" font-size="16px" fill="#1e1e1e" text-anchor="middle" style="white-space: pre;" direction="ltr" dominant-baseline="text-before-edge">abstraite.</text></g><g stroke-linecap="round" transform="translate(210.5988032563646 664.2377861398973) rotate(0 166.25636440646008 63.413990224942154)"><path d="M31.71 0 C122.39 3.98, 212.44 0.01, 300.81 0 C322.02 -0.4, 333.97 13.26, 332.51 31.71 C329.62 45.16, 333.07 57.6, 332.51 95.12 C333.16 117.72, 321.62 129.87, 300.81 126.83 C198.25 125.95, 90.24 124.98, 31.71 126.83 C12.63 128.81, 0.49 115.3, 0 95.12 C1.87 82.97, -3.33 71.54, 0 31.71 C-1.36 9.87, 9.82 -0.8, 31.71 0" stroke="none" stroke-width="0" fill="#a5d8ff"></path><path d="M31.71 0 C120.75 -1.69, 207.69 -1.27, 300.81 0 M31.71 0 C113.32 1.4, 194.13 1.09, 300.81 0 M300.81 0 C320.85 0.62, 334.5 10.52, 332.51 31.71 M300.81 0 C322.23 -1.17, 332.01 10.86, 332.51 31.71 M332.51 31.71 C332.83 52.33, 331.03 73.12, 332.51 95.12 M332.51 31.71 C332.26 51.09, 332.93 71.08, 332.51 95.12 M332.51 95.12 C332.43 116.51, 321.85 125.69, 300.81 126.83 M332.51 95.12 C330.31 118.5, 322.65 124.57, 300.81 126.83 M300.81 126.83 C220.19 129.13, 142.07 126.64, 31.71 126.83 M300.81 126.83 C245.48 125.56, 190.66 125.81, 31.71 126.83 M31.71 126.83 C10.5 126.17, -1.82 117.73, 0 95.12 M31.71 126.83 C11.8 124.75, 1.74 117.99, 0 95.12 M0 95.12 C-1.94 80.99, -1.8 68.82, 0 31.71 M0 95.12 C0.44 71.6, -0.14 46.86, 0 31.71 M0 31.71 C-1.38 11.66, 10.2 0.09, 31.71 0 M0 31.71 C-1.55 12.42, 12.71 -1.56, 31.71 0" stroke="#1e1e1e" stroke-width="1" fill="none"></path></g><g transform="translate(226.85516766282444 689.2517763648394) rotate(0 150 38.400000000000006)"><text x="150" y="0" font-family="Cascadia, Segoe UI Emoji" font-size="16px" fill="#1e1e1e" text-anchor="middle" style="white-space: pre;" direction="ltr" dominant-baseline="text-before-edge">16/20</text><text x="150" y="19.2" font-family="Cascadia, Segoe UI Emoji" font-size="16px" fill="#1e1e1e" text-anchor="middle" style="white-space: pre;" direction="ltr" dominant-baseline="text-before-edge">Bonne connaissance du framework </text><text x="150" y="38.4" font-family="Cascadia, Segoe UI Emoji" font-size="16px" fill="#1e1e1e" text-anchor="middle" style="white-space: pre;" direction="ltr" dominant-baseline="text-before-edge">permettant le développement </text><text x="150" y="57.599999999999994" font-family="Cascadia, Segoe UI Emoji" font-size="16px" fill="#1e1e1e" text-anchor="middle" style="white-space: pre;" direction="ltr" dominant-baseline="text-before-edge">multi-plateforme.</text></g><g stroke-linecap="round" transform="translate(229.28256496617723 14.31818778319996) rotate(0 166.25636440646008 63.413990224942154)"><path d="M31.71 0 C124.21 3.38, 217.73 5.8, 300.81 0 C318.39 -1.88, 329.54 8.27, 332.51 31.71 C333.53 53.41, 332.56 75.23, 332.51 95.12 C335.7 116.73, 322.37 129.35, 300.81 126.83 C234.33 125.29, 165 122.98, 31.71 126.83 C6.98 129.53, -1.83 118.98, 0 95.12 C-0.58 74.44, 0.04 54.36, 0 31.71 C0.27 8.32, 11.01 -1.68, 31.71 0" stroke="none" stroke-width="0" fill="#a5d8ff"></path><path d="M31.71 0 C86.56 0.97, 140.84 2.83, 300.81 0 M31.71 0 C134.86 -0.72, 239.65 -0.98, 300.81 0 M300.81 0 C322.19 -1.02, 332.08 10.82, 332.51 31.71 M300.81 0 C322.66 -2.03, 334.11 11.58, 332.51 31.71 M332.51 31.71 C332.38 51.22, 333.67 65.88, 332.51 95.12 M332.51 31.71 C332.41 49.84, 332.4 67.15, 332.51 95.12 M332.51 95.12 C330.6 118.21, 322.56 124.87, 300.81 126.83 M332.51 95.12 C332.44 116.37, 323.42 125.74, 300.81 126.83 M300.81 126.83 C202.35 123.48, 106.34 124.52, 31.71 126.83 M300.81 126.83 C238.43 125.8, 175.38 126.63, 31.71 126.83 M31.71 126.83 C11.64 125.02, 1.51 117.76, 0 95.12 M31.71 126.83 C8.53 127.24, -2.05 114.17, 0 95.12 M0 95.12 C2.11 79.22, 0.28 63.06, 0 31.71 M0 95.12 C-0.77 73.39, -0.26 50.6, 0 31.71 M0 31.71 C-1.35 12.18, 12.43 -1.35, 31.71 0 M0 31.71 C0.85 12.46, 8.91 -0.02, 31.71 0" stroke="#1e1e1e" stroke-width="1" fill="none"></path></g><g transform="translate(245.53892937263709 39.33217800814211) rotate(0 150 38.39999999999999)"><text x="150" y="0" font-family="Cascadia, Segoe UI Emoji" font-size="16px" fill="#1e1e1e" text-anchor="middle" style="white-space: pre;" direction="ltr" dominant-baseline="text-before-edge">14/20</text><text x="150" y="19.2" font-family="Cascadia, Segoe UI Emoji" font-size="16px" fill="#1e1e1e" text-anchor="middle" style="white-space: pre;" direction="ltr" dominant-baseline="text-before-edge">Le projet tutoré a été un grand </text><text x="150" y="38.4" font-family="Cascadia, Segoe UI Emoji" font-size="16px" fill="#1e1e1e" text-anchor="middle" style="white-space: pre;" direction="ltr" dominant-baseline="text-before-edge">défi sur le point de vu de </text><text x="150" y="57.599999999999994" font-family="Cascadia, Segoe UI Emoji" font-size="16px" fill="#1e1e1e" text-anchor="middle" style="white-space: pre;" direction="ltr" dominant-baseline="text-before-edge">l'analyse et de la conception.</text></g><g stroke-linecap="round"><g transform="translate(381.5032197737223 211.15243421674677) rotate(0 -25.240240140914466 -32.647701921400625)"><path d="M1.04 1.02 C-5.43 -1.29, -30.51 -3.28, -39.21 -14.27 C-47.9 -25.26, -49.46 -56.41, -51.14 -64.92 M0.12 0.51 C-6.4 -2.12, -30.98 -4.84, -39.71 -16.1 C-48.44 -27.37, -50.18 -59.05, -52.25 -67.07" stroke="#1e1e1e" stroke-width="1" fill="none"></path></g><g transform="translate(381.5032197737223 211.15243421674677) rotate(0 -25.240240140914466 -32.647701921400625)"><path d="M-40.12 -45.2 C-41.6 -49.54, -45.63 -57.91, -52.25 -67.07 M-40.12 -45.2 C-44.23 -52.95, -48.58 -59.56, -52.25 -67.07" stroke="#1e1e1e" stroke-width="1" fill="none"></path></g><g transform="translate(381.5032197737223 211.15243421674677) rotate(0 -25.240240140914466 -32.647701921400625)"><path d="M-57.01 -42.53 C-53.95 -47.73, -53.46 -56.81, -52.25 -67.07 M-57.01 -42.53 C-55.56 -51.16, -54.32 -58.65, -52.25 -67.07" stroke="#1e1e1e" stroke-width="1" fill="none"></path></g></g><mask></mask><g stroke-linecap="round"><g transform="translate(1078.9897035784206 210.17841676417515) rotate(0 26.063291449857843 -33.47075323034346)"><path d="M0.85 0.55 C7.52 -2.12, 32.3 -3.74, 41.05 -14.99 C49.79 -26.24, 51.45 -58.21, 53.32 -66.97 M-0.16 -0.21 C6.81 -2.73, 34.52 -6.01, 43.41 -16.92 C52.3 -27.83, 51.65 -57.36, 53.18 -65.67" stroke="#1e1e1e" stroke-width="1" fill="none"></path></g><g transform="translate(1078.9897035784206 210.17841676417515) rotate(0 26.063291449857843 -33.47075323034346)"><path d="M59.57 -41.5 C57.81 -51.89, 55.05 -58.15, 53.18 -65.67 M59.57 -41.5 C57.42 -48.6, 56.05 -56.8, 53.18 -65.67" stroke="#1e1e1e" stroke-width="1" fill="none"></path></g><g transform="translate(1078.9897035784206 210.17841676417515) rotate(0 26.063291449857843 -33.47075323034346)"><path d="M42.54 -43.05 C47.37 -52.96, 51.2 -58.62, 53.18 -65.67 M42.54 -43.05 C45.46 -49.6, 49.15 -57.34, 53.18 -65.67" stroke="#1e1e1e" stroke-width="1" fill="none"></path></g></g><mask></mask><g stroke-linecap="round"><g transform="translate(299.74678975206416 556.8339839727532) rotate(0 -15.729874592877877 50.78631155511508)"><path d="M-0.66 0.37 C-5.63 5.58, -23.88 15.03, -28.98 31.8 C-34.09 48.56, -30.85 89.31, -31.31 100.96 M1.2 -0.48 C-3.9 4.89, -23.77 16.25, -29.31 33.32 C-34.84 50.39, -31.61 90.36, -32 101.96" stroke="#1e1e1e" stroke-width="1" fill="none"></path></g><g transform="translate(299.74678975206416 556.8339839727532) rotate(0 -15.729874592877877 50.78631155511508)"><path d="M-40.96 78.62 C-36.91 89.32, -34.25 96.23, -32 101.96 M-40.96 78.62 C-38.47 83.54, -35.85 90.68, -32 101.96" stroke="#1e1e1e" stroke-width="1" fill="none"></path></g><g transform="translate(299.74678975206416 556.8339839727532) rotate(0 -15.729874592877877 50.78631155511508)"><path d="M-23.86 78.32 C-26.15 89.03, -29.84 96.06, -32 101.96 M-23.86 78.32 C-25.63 83.34, -27.28 90.55, -32 101.96" stroke="#1e1e1e" stroke-width="1" fill="none"></path></g></g><mask></mask><g stroke-linecap="round"><g transform="translate(1208.5188191176808 554.2138639022958) rotate(0 21.15192314097567 52.43353631005397)"><path d="M1.19 -0.03 C7.82 5.39, 32.3 15.35, 39.11 32.86 C45.92 50.37, 41.45 93.19, 42.04 105.02 M0.36 -1.09 C6.9 4.44, 31.44 16.16, 38.24 34.08 C45.03 52, 40.33 94.7, 41.14 106.41" stroke="#1e1e1e" stroke-width="1" fill="none"></path></g><g transform="translate(1208.5188191176808 554.2138639022958) rotate(0 21.15192314097567 52.43353631005397)"><path d="M33 82.78 C35.02 88.75, 36.05 93.86, 41.14 106.41 M33 82.78 C36.31 90.67, 37.98 97.16, 41.14 106.41" stroke="#1e1e1e" stroke-width="1" fill="none"></path></g><g transform="translate(1208.5188191176808 554.2138639022958) rotate(0 21.15192314097567 52.43353631005397)"><path d="M50.09 83.07 C47.92 89.14, 44.76 94.18, 41.14 106.41 M50.09 83.07 C48.06 90.73, 44.39 97.12, 41.14 106.41" stroke="#1e1e1e" stroke-width="1" fill="none"></path></g></g><mask></mask><g stroke-linecap="round"><g transform="translate(1212.068215763104 365.1712387852057) rotate(0 26.814403988432105 0.9774733823283697)"><path d="M0.15 -0.61 C8.85 -0.25, 44.39 1.85, 53.37 2.1 M-1.23 1.68 C7.18 2.26, 43.17 3.73, 52.28 3.72" stroke="#1e1e1e" stroke-width="1" fill="none"></path></g><g transform="translate(1212.068215763104 365.1712387852057) rotate(0 26.814403988432105 0.9774733823283697)"><path d="M28.6 11.72 C37.05 8.06, 47.78 5.92, 52.28 3.72 M28.6 11.72 C33.37 9.46, 38.29 8.31, 52.28 3.72" stroke="#1e1e1e" stroke-width="1" fill="none"></path></g><g transform="translate(1212.068215763104 365.1712387852057) rotate(0 26.814403988432105 0.9774733823283697)"><path d="M29 -5.38 C37.28 -2.21, 47.85 2.48, 52.28 3.72 M29 -5.38 C33.81 -4.02, 38.64 -1.55, 52.28 3.72" stroke="#1e1e1e" stroke-width="1" fill="none"></path></g></g><mask></mask><g stroke-linecap="round"><g transform="translate(246.74967217955054 375.0295140881942) rotate(0 -30.16620448698609 0.6094182724643815)"><path d="M-0.26 0.15 C-10.28 0.28, -50.09 -0.11, -59.96 0.16 M1.8 -0.82 C-8.35 -0.52, -50.44 1.06, -60.71 1.14" stroke="#1e1e1e" stroke-width="1" fill="none"></path></g><g transform="translate(246.74967217955054 375.0295140881942) rotate(0 -30.16620448698609 0.6094182724643815)"><path d="M-37.44 -8 C-44.51 -4.57, -53.8 -0.95, -60.71 1.14 M-37.44 -8 C-45.75 -4.88, -52.64 -1.09, -60.71 1.14" stroke="#1e1e1e" stroke-width="1" fill="none"></path></g><g transform="translate(246.74967217955054 375.0295140881942) rotate(0 -30.16620448698609 0.6094182724643815)"><path d="M-37.01 9.1 C-44.13 7.18, -53.55 5.46, -60.71 1.14 M-37.01 9.1 C-45.43 6.33, -52.48 4.24, -60.71 1.14" stroke="#1e1e1e" stroke-width="1" fill="none"></path></g></g><mask></mask><g stroke-linecap="round"><g transform="translate(742.2067276930788 758.3536074682795) rotate(0 0.6094182724646089 33.21329584930788)"><path d="M0.37 -1.06 C0.76 10.07, 1.95 55.8, 2.05 66.95 M-0.89 1 C-0.57 11.76, 1.37 54.13, 1.54 65.11" stroke="#1e1e1e" stroke-width="1" fill="none"></path></g><g transform="translate(742.2067276930788 758.3536074682795) rotate(0 0.6094182724646089 33.21329584930788)"><path d="M-7.77 41.9 C-6.91 49.72, -1.68 54.43, 1.54 65.11 M-7.77 41.9 C-4.65 48.51, -3.89 53.51, 1.54 65.11" stroke="#1e1e1e" stroke-width="1" fill="none"></path></g><g transform="translate(742.2067276930788 758.3536074682795) rotate(0 0.6094182724646089 33.21329584930788)"><path d="M9.33 41.35 C5.42 49.37, 5.9 54.23, 1.54 65.11 M9.33 41.35 C8.11 48.11, 4.53 53.25, 1.54 65.11" stroke="#1e1e1e" stroke-width="1" fill="none"></path></g></g><mask></mask></svg>